<?xml version="1.0" standalone="no"?>
<!DOCTYPE svg PUBLIC "-//W3C//DTD SVG 20010904//EN"
 "http://www.w3.org/TR/2001/REC-SVG-20010904/DTD/svg10.dtd">
<svg version="1.0" xmlns="http://www.w3.org/2000/svg"
 width="300.000000pt" height="139.000000pt" viewBox="0 0 300.000000 139.000000"
 preserveAspectRatio="xMidYMid meet">
<metadata>
Created by potrace 1.10, written by Peter Selinger 2001-2011
</metadata>
<g transform="translate(0.000000,139.000000) scale(0.100000,-0.100000)"
fill="#000000" stroke="none">
<path d="M420 970 c0 -15 7 -20 26 -20 22 0 25 -3 20 -22 -3 -13 -6 -32 -6
-44 0 -18 -8 -22 -50 -27 -64 -8 -103 -31 -137 -82 -22 -32 -27 -52 -28 -100
0 -68 20 -105 82 -153 34 -25 45 -27 145 -30 93 -3 108 -2 108 12 0 9 -7 16
-15 16 -13 0 -15 31 -15 220 0 213 1 220 20 220 11 0 20 7 20 15 0 12 -16 15
-85 15 -78 0 -85 -2 -85 -20z m85 -208 c-4 -4 -14 3 -23 14 -9 12 -25 24 -36
28 -17 6 -16 8 10 28 16 12 34 29 39 38 7 11 11 0 13 -44 2 -32 0 -61 -3 -64z
m-43 -88 c2 -53 2 -97 0 -98 -1 -2 -21 0 -44 4 -85 16 -117 103 -59 161 21 21
39 29 65 29 l35 0 3 -96z m40 -136 c-5 -5 -18 -8 -27 -6 -15 3 -14 6 7 33 23
30 23 30 26 6 2 -13 -1 -28 -6 -33z"/>
<path d="M690 734 c0 -167 3 -253 10 -249 6 4 10 100 10 256 0 159 -4 249 -10
249 -6 0 -10 -92 -10 -256z"/>
<path d="M845 821 l0 -171 85 0 c138 0 204 45 216 146 5 39 2 61 -14 97 -29
65 -78 88 -197 95 l-90 4 0 -171z m210 100 c19 -11 35 -32 45 -59 13 -37 13
-47 0 -84 -22 -60 -56 -82 -140 -86 l-70 -4 0 130 0 130 67 -5 c39 -2 81 -12
98 -22z"/>
<path d="M1190 820 l0 -170 120 0 c113 0 120 1 120 20 0 19 -7 20 -100 20
l-100 0 0 58 0 59 80 -5 c80 -5 80 -4 80 20 0 25 0 25 -80 20 l-80 -5 0 55 0
55 95 -5 95 -5 0 27 0 26 -115 0 -115 0 0 -170z"/>
<path d="M1442 820 l3 -170 117 0 c111 0 118 1 118 20 0 19 -7 20 -95 20 l-95
0 0 58 0 59 75 -5 c74 -5 75 -4 75 19 0 24 -1 24 -75 21 l-75 -4 0 54 0 55 93
-1 c88 -1 92 0 95 22 3 22 2 22 -118 22 l-121 0 3 -170z"/>
<path d="M1700 820 l0 -170 23 0 c22 0 23 3 19 65 l-4 65 75 0 c121 0 177 32
177 102 0 74 -70 108 -220 108 l-70 0 0 -170z m216 110 c29 -11 38 -31 30 -64
-7 -30 -43 -44 -133 -51 l-73 -6 0 64 c0 35 2 66 5 69 9 8 143 -2 171 -12z"/>
<path d="M2063 953 c-21 -51 -101 -231 -119 -267 -18 -37 -18 -36 10 -36 19 0
28 10 45 53 l21 52 73 0 72 -1 20 -52 c17 -44 24 -52 46 -52 l26 0 -32 68
c-17 37 -51 113 -76 169 -24 57 -50 103 -57 103 -7 0 -20 -17 -29 -37z m55
-96 c12 -29 22 -55 22 -57 0 -3 -23 -5 -50 -6 -28 0 -49 2 -48 5 2 3 12 30 23
59 11 28 22 52 26 52 3 0 15 -24 27 -53z"/>
<path d="M2290 820 l0 -170 24 0 c24 0 24 2 19 55 -5 49 -3 59 17 80 13 14 27
25 31 25 3 0 37 -36 74 -79 50 -57 76 -80 97 -83 15 -3 28 -2 28 1 -1 3 -39
49 -86 101 l-86 95 78 72 c75 69 78 73 50 73 -23 0 -49 -18 -119 -82 l-90 -82
5 82 c5 81 4 82 -19 82 l-23 0 0 -170z"/>
<path d="M860 570 c-24 -24 -24 -29 -4 -58 19 -27 55 -28 79 -2 20 22 6 27
-24 8 -28 -17 -55 6 -40 34 8 15 17 18 42 13 30 -6 31 -5 13 10 -26 20 -42 19
-66 -5z"/>
<path d="M1050 540 c0 -27 5 -50 10 -50 6 0 10 9 10 20 0 13 7 20 20 20 13 0
20 -7 20 -20 0 -11 5 -20 10 -20 6 0 10 23 10 50 0 28 -4 50 -10 50 -5 0 -10
-9 -10 -20 0 -13 -7 -20 -20 -20 -13 0 -20 7 -20 20 0 11 -4 20 -10 20 -5 0
-10 -22 -10 -50z"/>
<path d="M1420 556 c0 -51 9 -66 40 -66 16 0 30 7 34 16 10 25 7 84 -4 84 -5
0 -10 -18 -10 -40 0 -33 -3 -40 -20 -40 -17 0 -20 7 -20 40 0 22 -4 40 -10 40
-5 0 -10 -15 -10 -34z"/>
<path d="M1610 540 c0 -49 1 -50 29 -50 34 0 61 23 61 50 0 23 -36 50 -67 50
-21 0 -23 -5 -23 -50z m60 15 c16 -20 5 -45 -20 -45 -16 0 -20 7 -20 30 0 33
19 40 40 15z"/>
<path d="M1800 541 c0 -37 4 -51 14 -51 9 0 12 7 9 20 -4 16 0 20 21 20 19 0
26 -5 26 -20 0 -11 5 -20 10 -20 6 0 10 23 10 50 0 28 -4 50 -10 50 -5 0 -10
-9 -10 -20 0 -15 -7 -20 -25 -20 -19 0 -25 5 -23 16 2 10 -3 19 -9 21 -9 3
-13 -10 -13 -46z"/>
<path d="M2180 540 c0 -50 6 -60 27 -39 8 8 13 8 17 0 10 -16 26 -13 20 3 -3
8 -1 17 5 21 32 19 -2 65 -48 65 -18 0 -21 -6 -21 -50z m57 14 c6 -16 -15 -37
-29 -28 -4 3 -8 14 -8 25 0 23 28 26 37 3z"/>
<path d="M2349 556 c12 -18 21 -41 21 -50 0 -9 7 -16 15 -16 9 0 15 9 15 23 0
12 7 31 15 41 8 11 15 23 15 28 0 17 -16 7 -32 -19 l-16 -27 -13 27 c-7 15
-19 27 -26 27 -11 0 -10 -8 6 -34z"/>
<path d="M1254 537 l-22 -42 49 0 c27 0 49 1 49 3 0 7 -46 82 -50 82 -3 0 -15
-20 -26 -43z"/>
<path d="M2013 540 c-13 -21 -23 -40 -23 -42 0 -2 22 -3 49 -4 l49 0 -21 43
c-12 23 -24 43 -27 43 -3 0 -15 -18 -27 -40z"/>
</g>
</svg>
